# xmcd
#
# Track frame offsets:
#	150
#	12056
#	21917
#	35499
#	47432
#	59558
#	71445
#	80536
#	95159
#	111917
#	126250
#	142786
#	154608
#	165271
#	176941
#	189203
#	206928
#	226034
#	251683
#	264283
#	281953
#	300756
#
# Disc length: 4181 seconds
#
# Revision: 0
# Processed by: cddbd v1.5.2PL0 Copyright (c) Steve Scherf et al.
# Submitted via: audiograbber 1.83.01
#
DISCID=25105316
DTITLE=Various Artist - Golden Memories Vol. 2
DYEAR=2004
DGENRE=
TTITLE0=Jim Reeves - Welcome To My World
TTITLE1=Ed Ames - My Love Is Gone From Me
TTITLE2=Andy Williams - Speak Sofly Love
TTITLE3=The Platters - The Great Pretender
TTITLE4=The Platters - Smoke Gets In Your Eyes
TTITLE5=Neil Sedaka - You Mean Everything To Me
TTITLE6=The Everly Brothers - Crying In The Rain
TTITLE7=Neilson - Without You
TTITLE8=Johnny Mathis - When A Child Is Born
TTITLE9=Andy Williams - Love Story
TTITLE10=Perry Como - For The Good Time
TTITLE11=The Platters - Only You
TTITLE12=Brain Hylan - Itsy Bitsy Teenie Weenie Yellow Polka Dot Bikini
TTITLE13=Pat Boone - Speedy Gonzales
TTITLE14=Hank Williams - Your Cheating Heart
TTITLE15=Petula Clark - Kiss Me Goodbye
TTITLE16=Captain and Tennile - Do That To Me One More Time
TTITLE17=Santa Esmeralda - You're My Everything
TTITLE18=The Proclaimers - Bye Bye Love
TTITLE19=Freddy Aguilar - Anak
TTITLE20=Stephen Bishop - It Might Be You
TTITLE21=Johnny Horton - North To Alaska
EXTD=
EXTT0=
EXTT1=
EXTT2=
EXTT3=
EXTT4=
EXTT5=
EXTT6=
EXTT7=
EXTT8=
EXTT9=
EXTT10=
EXTT11=
EXTT12=
EXTT13=
EXTT14=
EXTT15=
EXTT16=
EXTT17=
EXTT18=
EXTT19=
EXTT20=
EXTT21=
PLAYORDER=
